<svg xmlns="http://www.w3.org/2000/svg" width="900" height="180" viewBox="0 0 900 180" role="img">
  <title>Architecture Expertise</title>
  <rect width="900" height="180" fill="#0F172A"/>
  <g font-family="Segoe UI, Helvetica Neue, Arial, sans-serif" font-size="13" fill="#E2E8F0">
    <text x="16" y="28" fill="#3B82F6" font-size="13" font-weight="700" letter-spacing="1">ARCHITECTURE EXPERTISE</text>
    <rect x="16" y="44" width="160" height="36" rx="8" fill="#1E293B" stroke="#334155"/><text x="96" y="67" text-anchor="middle">REST APIs</text>
    <rect x="188" y="44" width="180" height="36" rx="8" fill="#1E293B" stroke="#334155"/><text x="278" y="67" text-anchor="middle">Event Driven Systems</text>
    <rect x="380" y="44" width="160" height="36" rx="8" fill="#1E293B" stroke="#334155"/><text x="460" y="67" text-anchor="middle">Queue Architecture</text>
    <rect x="552" y="44" width="140" height="36" rx="8" fill="#1E293B" stroke="#334155"/><text x="622" y="67" text-anchor="middle">Microservices</text>
    <rect x="704" y="44" width="170" height="36" rx="8" fill="#1E293B" stroke="#334155"/><text x="789" y="67" text-anchor="middle">Authentication / RBAC</text>

    <rect x="16" y="96" width="170" height="36" rx="8" fill="#1E293B" stroke="#334155"/><text x="101" y="119" text-anchor="middle">Real-time Apps</text>
    <rect x="198" y="96" width="160" height="36" rx="8" fill="#1E293B" stroke="#334155"/><text x="278" y="119" text-anchor="middle">Background Workers</text>
    <rect x="370" y="96" width="170" height="36" rx="8" fill="#1E293B" stroke="#334155"/><text x="455" y="119" text-anchor="middle">Notification Systems</text>
    <rect x="552" y="96" width="140" height="36" rx="8" fill="#1E293B" stroke="#334155"/><text x="622" y="119" text-anchor="middle">SaaS Platforms</text>
    <rect x="704" y="96" width="170" height="36" rx="8" fill="#1E293B" stroke="#334155"/><text x="789" y="119" text-anchor="middle">Distributed Systems</text>

    <text x="16" y="162" fill="#94A3B8" font-size="13">Design for scale, failure isolation, and measurable production reliability.</text>
  </g>
</svg>
